<svg version="1.0" xmlns="http://www.w3.org/2000/svg"
 width="32.000000pt" height="32.000000pt" viewBox="0 0 32.000000 32.000000"
 preserveAspectRatio="xMidYMid meet">

<g transform="translate(0.000000,32.000000) scale(0.100000,-0.100000)"
fill="#c74778" stroke="none">
<path d="M0 260 c0 -15 20 -30 80 -60 l80 -40 80 40 c60 30 80 45 80 60 0 19
-7 20 -160 20 -153 0 -160 -1 -160 -20z"/>
<path d="M0 115 l0 -75 160 0 160 0 0 75 c0 41 -2 75 -5 75 -2 0 -38 -17 -80
-37 l-75 -37 -75 37 c-42 20 -78 37 -80 37 -3 0 -5 -34 -5 -75z"/>
</g>
</svg>
