
<svg version="1.0" xmlns="http://www.w3.org/2000/svg"
 width="24.000000pt" height="24.000000pt" viewBox="0 0 24.000000 24.000000"
 preserveAspectRatio="xMidYMid meet">

<g transform="translate(0.000000,24.000000) scale(0.100000,-0.100000)"
fill="#c74778" stroke="none">
<path d="M50 160 c-66 -60 -48 -67 21 -9 l49 41 49 -41 c53 -44 89 -57 53 -18
-12 13 -22 35 -22 50 0 17 -5 27 -15 27 -8 0 -15 -7 -15 -17 0 -15 -1 -15 -18
0 -28 25 -42 21 -102 -33z"/>
<path d="M78 139 c-32 -26 -38 -37 -38 -70 0 -37 2 -39 30 -39 25 0 30 4 30
25 0 18 5 25 20 25 15 0 20 -7 20 -25 0 -21 5 -25 30 -25 28 0 30 2 30 39 0
33 -6 44 -37 70 -21 17 -40 31 -43 31 -3 -1 -22 -14 -42 -31z"/>
</g>
</svg>
