<svg version="1.0" xmlns="http://www.w3.org/2000/svg"
 width="32.000000pt" height="32.000000pt" viewBox="0 0 32.000000 32.000000"
 preserveAspectRatio="xMidYMid meet">

<g transform="translate(0.000000,32.000000) scale(0.100000,-0.100000)"
fill="#c74778" stroke="none">
<path d="M72 218 c-49 -40 -70 -64 -63 -71 6 -6 32 9 77 47 38 31 71 56 74 56
3 0 36 -25 74 -56 42 -36 71 -53 77 -47 6 6 0 18 -16 33 -18 17 -25 34 -25 62
0 31 -3 38 -20 38 -11 0 -20 -7 -20 -15 0 -8 -6 -15 -14 -15 -7 0 -19 7 -26
15 -21 25 -42 17 -118 -47z"/>
<path d="M103 187 c-50 -41 -52 -44 -52 -94 l-1 -53 40 0 c39 0 40 1 40 35 0
32 2 35 30 35 28 0 30 -3 30 -35 0 -34 1 -35 40 -35 l40 0 0 53 c-1 51 -2 53
-54 95 -29 23 -55 42 -57 42 -2 0 -27 -20 -56 -43z"/>
</g>
</svg>
