<svg xmlns="http://www.w3.org/2000/svg" width="32" height="32" viewBox="0 0 32 32" fill="none">
<path d="M12 16.1054L14.6667 18.6654L20 13.332" stroke="white" stroke-width="1.5" stroke-linecap="round" stroke-linejoin="round"/>
<path d="M22.667 4.45003C20.641 3.2779 18.341 2.66242 16.0003 2.66603C8.63633 2.66603 2.66699 8.63536 2.66699 15.9994C2.66699 18.1327 3.16833 20.1487 4.05766 21.9367C4.29499 22.4114 4.37366 22.954 4.23633 23.4674L3.44299 26.4354C3.36471 26.729 3.36501 27.0381 3.44385 27.3315C3.52268 27.625 3.6773 27.8926 3.89218 28.1075C4.10706 28.3224 4.37466 28.477 4.66815 28.5558C4.96163 28.6347 5.27069 28.635 5.56433 28.5567L8.53233 27.7634C9.04753 27.6337 9.59236 27.6968 10.0643 27.9407C11.9082 28.8589 13.9405 29.3354 16.0003 29.3327C23.3643 29.3327 29.3337 23.3634 29.3337 15.9994C29.3337 13.5714 28.6843 11.2927 27.5497 9.3327" stroke="white" stroke-width="1.5" stroke-linecap="round"/>
</svg>
