<svg xmlns="http://www.w3.org/2000/svg" width="525" height="45" fill="none">
  <path fill="#00579F" d="M68.2724 4.9685c3.2695 0 5.9137.7522 7.5809 1.4334l-1.1495 7.27-.7645-.3575c-1.5294-.6807-3.5482-1.361-6.296-1.2891-3.337 0-4.8336 1.4677-4.8683 2.9005 0 1.5762 1.8104 2.6149 4.7666 4.1554 4.8697 2.3997 7.1285 5.3364 7.0947 9.169-.0684 6.9845-5.8421 11.4978-14.7107 11.4978-3.7919-.0362-7.4442-.8616-9.4265-1.7918l1.1827-7.5576 1.113.5379c2.7478 1.2548 4.5559 1.7909 7.9304 1.7909 2.4334 0 5.0425-1.0397 5.0758-3.2952 0-1.4686-1.1116-2.5439-4.3816-4.1915-3.1993-1.6124-7.477-4.2982-7.4076-9.1338.036-6.5541 5.9138-11.1384 14.2606-11.1384ZM36.7613 39.2462h8.4522l5.2861-33.6674h-8.4517l-5.2866 33.6674Z"/>
  <path fill="#00579F" fill-rule="evenodd" d="M97.5199 5.5788h-6.5377c-2.0161 0-3.5478.6084-4.4177 2.7934L74.01 39.2458h8.8685s1.4601-4.1554 1.7739-5.0503h10.8518c.2427 1.182 1.0086 5.0503 1.0086 5.0503h7.8262l-6.8191-33.667ZM87.0868 27.3191c.6961-1.9342 3.3745-9.4199 3.3745-9.4199-.0142.029.0964-.2867.2608-.7561.2426-.6927.6024-1.7201.8512-2.4672l.5907 2.901s1.6006 8.0589 1.9481 9.7422h-7.0253Z" clip-rule="evenodd"/>
  <path fill="#00579F" d="m21.4242 28.5368 8.2774-22.958h8.9375L25.3537 39.2106h-8.9379L8.834 9.7684c5.3559 2.9025 10.1553 8.7397 11.6856 14.1123l.9046 4.6561Z"/>
  <path fill="#FAA61A" d="M13.7378 5.5788H.1391L0 6.2591c10.6078 2.7938 17.6332 9.5284 20.5196 17.623L17.5634 8.4089c-.4867-2.1503-1.9824-2.7592-3.8256-2.8301Z"/>
  <path fill="#3C4043" fill-rule="evenodd" d="M470.636 34.4898V22.4821h6.198c2.539 0 4.683-.8509 6.43-2.5291l.419-.4255c3.192-3.4747 2.983-8.8876-.419-12.1022-1.701-1.7019-4.031-2.6237-6.43-2.5765h-9.949v29.641h3.751Zm0-15.648V8.4888h6.292c1.351 0 2.633.52 3.588 1.4655 2.028 1.9855 2.074 5.2947.117 7.3511-.955 1.0164-2.307 1.5837-3.705 1.5364h-6.292ZM501.181 15.7927c-1.608-1.4891-3.798-2.2455-6.57-2.2455-3.565 0-6.244 1.3237-8.015 3.9474l3.308 2.1037c1.212-1.7964 2.866-2.6946 4.963-2.6946 1.328 0 2.609.4963 3.611 1.3945.979.851 1.538 2.0801 1.538 3.3802v.8745c-1.445-.8036-3.262-1.2291-5.498-1.2291-2.61 0-4.707.6146-6.268 1.8673-1.561 1.2528-2.353 2.9074-2.353 5.0111-.046 1.9146.769 3.7347 2.214 4.9638 1.467 1.3237 3.331 1.9855 5.521 1.9855 2.586 0 4.637-1.1582 6.198-3.4746h.163v2.8128h3.588V21.9856c0-2.6237-.793-4.7038-2.4-6.1929ZM491 30.7551c-.769-.5673-1.235-1.4892-1.235-2.4819 0-1.111.513-2.0328 1.515-2.7656 1.025-.7327 2.307-1.1109 3.821-1.1109 2.098-.0236 3.729.4491 4.894 1.3946 0 1.6073-.629 3.0019-1.864 4.1837-1.119 1.1346-2.633 1.7728-4.218 1.7728-1.049.0237-2.074-.3309-2.913-.9927Z" clip-rule="evenodd"/>
  <path fill="#3C4043" d="m511.642 43.4008 12.535-29.1918h-4.078l-5.801 14.5604h-.07l-5.941-14.5604h-4.077l8.224 18.9806-4.659 10.2112h3.867Z"/>
  <path fill="#4285F4" d="M457.686 19.8822c0-1.1582-.093-2.3165-.279-3.451h-15.82v6.5474h9.063c-.373 2.1037-1.584 3.9947-3.355 5.1766v4.2546h5.405c3.169-2.9546 4.986-7.3275 4.986-12.5276Z"/>
  <path fill="#34A853" d="M441.588 36.5228c4.519 0 8.34-1.5129 11.112-4.113l-5.405-4.2546c-1.514 1.04-3.447 1.631-5.707 1.631-4.38 0-8.085-3.0019-9.413-7.0202h-5.568v4.3965c2.842 5.7438 8.643 9.3603 14.981 9.3603Z"/>
  <path fill="#FBBC04" d="M432.175 22.766c-.699-2.1037-.698-4.3966.001-6.5239v-4.3729h-5.569c-2.4 4.7984-2.4 10.4713 0 15.2696l5.568-4.3728Z"/>
  <path fill="#EA4335" d="M441.588 9.2219c2.399-.0473 4.706.8745 6.43 2.5528l4.799-4.8693c-3.052-2.8837-7.059-4.4674-11.229-4.4201-6.338 0-12.139 3.6401-14.981 9.3839l5.568 4.3965c1.328-4.0419 5.033-7.0438 9.413-7.0438Z"/>
  <path fill="#000" fill-rule="evenodd" d="M313.783 7.9656c-1.165 1.436-3.028 2.5687-4.891 2.4069-.233-1.9417.679-4.0048 1.746-5.279 1.165-1.4766 3.203-2.5283 4.853-2.6092.194 2.0226-.563 4.0048-1.708 5.4813Zm1.688 2.7912c-1.641-.0985-3.139.5144-4.349 1.0095-.779.3186-1.438.5884-1.94.5884-.563 0-1.249-.2843-2.02-.6034-1.01-.4181-2.165-.8961-3.376-.8732-2.776.0405-5.357 1.6788-6.774 4.288-2.912 5.2184-.757 12.9449 2.057 17.1924 1.379 2.1035 3.028 4.4093 5.202 4.3284.957-.0376 1.645-.3418 2.357-.6566.82-.3624 1.671-.739 3.001-.739 1.283 0 2.098.3667 2.879.7188.743.3347 1.457.6561 2.517.6364 2.251-.0405 3.668-2.1036 5.046-4.2071 1.488-2.2577 2.141-4.4611 2.24-4.7954l.012-.0387s-.021-.0112-.053-.0267c-.497-.2372-4.297-2.0499-4.334-6.9109-.036-4.0801 3.014-6.1474 3.495-6.4728.029-.0198.049-.0331.057-.0401-1.941-2.9935-4.969-3.3171-6.017-3.398Zm15.587 25.6672V4.8911h11.355c5.862 0 9.958 4.2071 9.958 10.3559 0 6.1488-4.173 10.3964-10.113 10.3964h-6.503V36.424h-4.697Zm4.697-27.4066h5.415c4.076 0 6.406 2.2653 6.406 6.2499 0 3.9846-2.33 6.2702-6.425 6.2702h-5.396V9.0174Zm32.124 23.6243c-1.242 2.4676-3.979 4.0251-6.929 4.0251-4.368 0-7.415-2.7104-7.415-6.7961 0-4.0453 2.95-6.3713 8.405-6.7151l5.862-.3641V21.052c0-2.5687-1.611-3.9643-4.484-3.9643-2.368 0-4.096 1.2742-4.445 3.216h-4.232c.136-4.0858 3.824-7.059 8.813-7.059 5.376 0 8.87 2.9328 8.87 7.4837V36.424h-4.348v-3.7823h-.097Zm-5.667.2832c-2.504 0-4.096-1.2541-4.096-3.1756 0-1.9821 1.533-3.135 4.464-3.3171l5.222-.3438v1.7799c0 2.953-2.407 5.0566-5.59 5.0566Zm24.534 4.7329C384.863 43.1796 382.709 45 378.128 45c-.349 0-1.514-.0405-1.786-.1214v-3.7823c.291.0405 1.01.0809 1.378.0809 2.077 0 3.242-.9102 3.96-3.2766l.427-1.3957-7.958-22.9569h4.911l5.532 18.6285h.097l5.532-18.6285h4.775l-8.25 24.1098Z" clip-rule="evenodd"/>
  <path fill="#ED0006" d="M191.328 39.3753c-3.951 3.3306-9.076 5.3412-14.677 5.3412-12.497 0-22.628-10.0101-22.628-22.3583C154.023 10.0101 164.154 0 176.651 0c5.601 0 10.726 2.0106 14.677 5.3412C195.28 2.0106 200.405 0 206.006 0c12.497 0 22.627 10.0101 22.627 22.3582 0 12.3482-10.13 22.3583-22.627 22.3583-5.601 0-10.726-2.0106-14.678-5.3412Z"/>
  <path fill="#F9A000" d="M191.328 39.3752c4.865-4.1009 7.95-10.2029 7.95-17.017 0-6.814-3.085-12.916-7.95-17.017C195.28 2.0107 200.405 0 206.006 0c12.497 0 22.627 10.0101 22.627 22.3582 0 12.3482-10.13 22.3583-22.627 22.3583-5.601 0-10.726-2.0106-14.678-5.3413Z"/>
  <path fill="#FF5E00" d="M191.328 39.3754c4.865-4.1009 7.95-10.203 7.95-17.0171 0-6.814-3.085-12.9161-7.95-17.017-4.865 4.1009-7.95 10.203-7.95 17.017 0 6.8141 3.085 12.9162 7.95 17.0171Z"/>
</svg>
