
<svg version="1.0" xmlns="http://www.w3.org/2000/svg"
 width="32.000000pt" height="32.000000pt" viewBox="0 0 32.000000 32.000000"
 preserveAspectRatio="xMidYMid meet">

<g transform="translate(0.000000,32.000000) scale(0.100000,-0.100000)"
fill="#c74778" stroke="none">
<path d="M75 307 c-3 -7 -4 -78 -3 -157 l3 -145 85 0 85 0 0 155 0 155 -83 3
c-62 2 -84 -1 -87 -11z m115 -7 c0 -5 -13 -10 -30 -10 -16 0 -30 5 -30 10 0 6
14 10 30 10 17 0 30 -4 30 -10z m50 -135 l0 -115 -80 0 -80 0 0 115 0 115 80
0 80 0 0 -115z m-65 -134 c7 -12 -12 -24 -25 -16 -11 7 -4 25 10 25 5 0 11 -4
15 -9z"/>
</g>
</svg>
