
<svg version="1.0" xmlns="http://www.w3.org/2000/svg"
 width="24.000000pt" height="24.000000pt" viewBox="0 0 24.000000 24.000000"
 preserveAspectRatio="xMidYMid meet">

<g transform="translate(0.000000,24.000000) scale(0.100000,-0.100000)"
fill="#c74778" stroke="none">
<path d="M55 227 c-3 -7 -4 -60 -3 -118 l3 -104 65 0 65 0 0 115 0 115 -63 3
c-45 2 -64 -1 -67 -11z m78 -4 c-7 -2 -19 -2 -25 0 -7 3 -2 5 12 5 14 0 19 -2
13 -5z m47 -98 l0 -85 -60 0 -60 0 0 85 0 85 60 0 60 0 0 -85z m-50 -105 c0
-5 -4 -10 -10 -10 -5 0 -10 5 -10 10 0 6 5 10 10 10 6 0 10 -4 10 -10z"/>
</g>
</svg>
