
<svg version="1.0" xmlns="http://www.w3.org/2000/svg"
 width="24.000000pt" height="24.000000pt" viewBox="0 0 24.000000 24.000000"
 preserveAspectRatio="xMidYMid meet">

<g transform="translate(0.000000,24.000000) scale(0.100000,-0.100000)"
fill="#c74778" stroke="none">
<path d="M54 221 c-59 -36 -68 -108 -18 -158 20 -20 33 -24 73 -22 37 2 55 -2
76 -19 47 -37 70 -14 33 33 -16 21 -21 39 -19 71 3 52 -10 79 -49 99 -38 20
-58 19 -96 -4z m101 -36 c28 -27 30 -42 14 -78 -11 -25 -47 -47 -75 -47 -24 0
-64 47 -64 75 0 14 11 37 25 50 31 32 69 32 100 0z"/>
</g>
</svg>
