<svg version="1.0" xmlns="http://www.w3.org/2000/svg" width="32pt" height="32pt" viewBox="0 0 32.000000 32.000000"
    preserveAspectRatio="xMidYMid meet">

    <g transform="translate(0.000000,32.000000) scale(0.100000,-0.100000)" fill="#c74778" stroke="none">
        <path d="M84 306 c-71 -31 -98 -106 -66 -179 27 -60 66 -81 141 -74 51 4 59 2
89 -24 37 -33 45 -35 61 -15 14 17 5 41 -27 69 -17 16 -19 27 -15 76 7 75 -13
116 -70 142 -49 22 -71 23 -113 5z m114 -51 c38 -32 46 -65 28 -110 -11 -25
-26 -40 -51 -51 -45 -18 -78 -10 -110 28 -75 89 44 208 133 133z" />
    </g>
</svg>