<svg xmlns="http://www.w3.org/2000/svg" width="32" height="32" viewBox="0 0 32 32" version="1.1"
    transform="matrix(1,0,0,-1,0,0)">
    <rect width="32" height="32" rx="22" fill="#fff"></rect>
    <path
        d="M11.3 1.1C3.8 3.3-1.1 12.3 1 19.9c3.9 14.6 24.2 15.7 29.4 1.6 3-7.8-.3-16.2-7.8-19.4C18 0 16-.2 11.2 1.2zm7.8 8.5C22 7.1 22.5 7 23.9 8.4s1.2 1.9-1.4 4.6l-2.9 3 2.9 3c2.7 2.8 2.8 3.1 1.2 4.7s-1.9 1.5-4.7-1.2l-3-2.9-3 2.9c-2.7 2.6-3.2 2.8-4.6 1.4S7.1 22 9.6 19.1l2.7-3.2-2.7-2.7c-2.4-2.6-2.5-2.9-.9-4.5s1.9-1.5 4.5.9l2.7 2.7z"
        fill="#c74778"></path>
</svg>