<svg version="1.0" xmlns="http://www.w3.org/2000/svg"
 width="24.000000pt" height="24.000000pt" viewBox="0 0 24.000000 24.000000"
 preserveAspectRatio="xMidYMid meet">

<g transform="translate(0.000000,24.000000) scale(0.100000,-0.100000)"
fill="#c74778" stroke="none">
<path d="M70 223 c-21 -11 -42 -33 -54 -57 -17 -36 -18 -43 -5 -79 39 -110
180 -109 219 1 13 37 12 45 -3 76 -30 64 -98 89 -157 59z m73 -54 c22 19 25
20 37 6 11 -13 9 -19 -8 -38 l-22 -23 21 -20 c17 -17 18 -22 6 -32 -11 -9 -18
-8 -32 8 l-18 20 -23 -21 c-20 -18 -26 -20 -39 -9 -14 12 -13 15 6 37 l22 23
-21 23 c-17 18 -19 26 -10 35 9 9 17 7 35 -10 l23 -21 23 22z"/>
</g>
</svg>
